<svg width="56" height="56" viewBox="0 0 56 56" fill="none" xmlns="http://www.w3.org/2000/svg">
<path fill-rule="evenodd" clip-rule="evenodd" d="M6.125 15.75C6.125 14.3003 7.30025 13.125 8.75 13.125C10.1997 13.125 11.375 14.3003 11.375 15.75C11.375 17.1997 10.1997 18.375 8.75 18.375C7.30025 18.375 6.125 17.1997 6.125 15.75ZM17.5 15.75C17.5 14.7835 18.2835 14 19.25 14H47.25C48.2165 14 49 14.7835 49 15.75C49 16.7165 48.2165 17.5 47.25 17.5H19.25C18.2835 17.5 17.5 16.7165 17.5 15.75ZM6.125 28C6.125 26.5503 7.30025 25.375 8.75 25.375C10.1997 25.375 11.375 26.5503 11.375 28C11.375 29.4497 10.1997 30.625 8.75 30.625C7.30025 30.625 6.125 29.4497 6.125 28ZM17.5 28C17.5 27.0335 18.2835 26.25 19.25 26.25H47.25C48.2165 26.25 49 27.0335 49 28C49 28.9665 48.2165 29.75 47.25 29.75H19.25C18.2835 29.75 17.5 28.9665 17.5 28ZM6.125 40.25C6.125 38.8003 7.30025 37.625 8.75 37.625C10.1997 37.625 11.375 38.8003 11.375 40.25C11.375 41.6997 10.1997 42.875 8.75 42.875C7.30025 42.875 6.125 41.6997 6.125 40.25ZM17.5 40.25C17.5 39.2835 18.2835 38.5 19.25 38.5H47.25C48.2165 38.5 49 39.2835 49 40.25C49 41.2165 48.2165 42 47.25 42H19.25C18.2835 42 17.5 41.2165 17.5 40.25Z" fill="#0034EE"/>
</svg>
