<svg width="40" height="50" viewBox="0 0 40 50" fill="none" xmlns="http://www.w3.org/2000/svg">
<path fill-rule="evenodd" clip-rule="evenodd" d="M5.125 0.5C2.70876 0.5 0.75 2.45875 0.75 4.875V45.125C0.75 47.5412 2.70875 49.5 5.125 49.5H34.875C37.2912 49.5 39.25 47.5412 39.25 45.125V26.75C39.25 21.9175 35.3325 18 30.5 18H26.125C23.7088 18 21.75 16.0412 21.75 13.625V9.25C21.75 4.41751 17.8325 0.5 13 0.5H5.125ZM9.5 32C9.5 31.0335 10.2835 30.25 11.25 30.25H28.75C29.7165 30.25 30.5 31.0335 30.5 32C30.5 32.9665 29.7165 33.75 28.75 33.75H11.25C10.2835 33.75 9.5 32.9665 9.5 32ZM11.25 37.25C10.2835 37.25 9.5 38.0335 9.5 39C9.5 39.9665 10.2835 40.75 11.25 40.75H20C20.9665 40.75 21.75 39.9665 21.75 39C21.75 38.0335 20.9665 37.25 20 37.25H11.25Z" fill="#56AC60"/>
<path d="M22.2661 1.23711C24.1252 3.38512 25.25 6.18621 25.25 9.25V13.625C25.25 14.1082 25.6418 14.5 26.125 14.5H30.5C33.5638 14.5 36.3649 15.6248 38.5129 17.4839C36.4412 9.55305 30.197 3.30881 22.2661 1.23711Z" fill="#56AC60"/>
</svg>
