<svg width="42" height="50" viewBox="0 0 42 50" fill="none" xmlns="http://www.w3.org/2000/svg">
<path fill-rule="evenodd" clip-rule="evenodd" d="M27.1022 0.721554C27.8051 1.11342 28.1501 1.93413 27.9384 2.71052L23.2912 19.7501H40.25C40.9469 19.7501 41.5773 20.1635 41.855 20.8026C42.1328 21.4417 42.0049 22.1847 41.5294 22.6941L17.0294 48.9441C16.4803 49.5324 15.6008 49.6704 14.8979 49.2786C14.195 48.8867 13.85 48.066 14.0617 47.2896L18.7089 30.2501H1.75004C1.05319 30.2501 0.422757 29.8366 0.145031 29.1975C-0.132696 28.5584 -0.00477809 27.8154 0.470692 27.306L24.9707 1.056C25.5198 0.467692 26.3993 0.329688 27.1022 0.721554Z" fill="#56AC60"/>
</svg>
